<mxfile host="app.diagrams.net" modified="2024-05-15T11:03:51.016Z" agent="Mozilla/5.0 (Windows NT 10.0; Win64; x64) AppleWebKit/537.36 (KHTML, like Gecko) Chrome/121.0.0.0 Safari/537.36 OPR/107.0.0.0" etag="bNKmlDhc4POwjeZnjk7f" version="24.4.0" type="device">
  <diagram name="Страница — 1" id="Wkze1QrWZdtMdZoNIVnA">
    <mxGraphModel dx="1461" dy="606" grid="1" gridSize="10" guides="1" tooltips="1" connect="1" arrows="1" fold="1" page="1" pageScale="1" pageWidth="827" pageHeight="1169" math="0" shadow="0">
      <root>
        <mxCell id="0" />
        <mxCell id="1" parent="0" />
        <mxCell id="sAePxxTuM_fehcJtn6L--1" value="&lt;font style=&quot;font-size: 17px;&quot;&gt;&amp;lt;&amp;lt;База данных&amp;gt;&amp;gt;&lt;/font&gt;&lt;div style=&quot;font-size: 17px;&quot;&gt;&lt;font style=&quot;font-size: 17px;&quot;&gt;Общая база данных&lt;/font&gt;&lt;/div&gt;" style="shape=cube;whiteSpace=wrap;html=1;boundedLbl=1;backgroundOutline=1;darkOpacity=0.05;darkOpacity2=0.1;" vertex="1" parent="1">
          <mxGeometry x="250" y="90" width="260" height="80" as="geometry" />
        </mxCell>
        <mxCell id="sAePxxTuM_fehcJtn6L--3" value="&lt;font style=&quot;font-size: 18px;&quot;&gt;&amp;lt;&amp;lt;Сервер приложения&amp;gt;&amp;gt;&lt;/font&gt;&lt;div style=&quot;font-size: 18px;&quot;&gt;&lt;font style=&quot;font-size: 18px;&quot;&gt;Обслуживание запросов клиентов и сотрудников&lt;/font&gt;&lt;/div&gt;" style="shape=cube;whiteSpace=wrap;html=1;boundedLbl=1;backgroundOutline=1;darkOpacity=0.05;darkOpacity2=0.1;" vertex="1" parent="1">
          <mxGeometry x="220" y="230" width="420" height="90" as="geometry" />
        </mxCell>
        <mxCell id="sAePxxTuM_fehcJtn6L--4" value="&lt;font style=&quot;font-size: 18px;&quot;&gt;&amp;lt;&amp;lt;Desktop приложение&amp;gt;&amp;gt;&lt;/font&gt;&lt;div style=&quot;font-size: 18px;&quot;&gt;&lt;font style=&quot;font-size: 18px;&quot;&gt;Графический интерфейс для клиентов и сотрудников&lt;/font&gt;&lt;/div&gt;" style="shape=cube;whiteSpace=wrap;html=1;boundedLbl=1;backgroundOutline=1;darkOpacity=0.05;darkOpacity2=0.1;" vertex="1" parent="1">
          <mxGeometry x="300" y="460" width="450" height="100" as="geometry" />
        </mxCell>
        <mxCell id="sAePxxTuM_fehcJtn6L--5" value="" style="endArrow=none;html=1;rounded=0;entryX=0;entryY=0;entryDx=140;entryDy=80;entryPerimeter=0;exitX=0;exitY=0;exitDx=200;exitDy=0;exitPerimeter=0;" edge="1" parent="1" source="sAePxxTuM_fehcJtn6L--3" target="sAePxxTuM_fehcJtn6L--1">
          <mxGeometry width="50" height="50" relative="1" as="geometry">
            <mxPoint x="390" y="290" as="sourcePoint" />
            <mxPoint x="440" y="240" as="targetPoint" />
          </mxGeometry>
        </mxCell>
        <mxCell id="sAePxxTuM_fehcJtn6L--6" value="" style="endArrow=none;html=1;rounded=0;entryX=0;entryY=0;entryDx=220;entryDy=90;entryPerimeter=0;exitX=0;exitY=0;exitDx=215;exitDy=0;exitPerimeter=0;" edge="1" parent="1" source="sAePxxTuM_fehcJtn6L--4" target="sAePxxTuM_fehcJtn6L--3">
          <mxGeometry width="50" height="50" relative="1" as="geometry">
            <mxPoint x="430" y="240" as="sourcePoint" />
            <mxPoint x="390" y="160" as="targetPoint" />
          </mxGeometry>
        </mxCell>
        <mxCell id="sAePxxTuM_fehcJtn6L--7" value="Удалённый сервер" style="swimlane;whiteSpace=wrap;html=1;" vertex="1" parent="1">
          <mxGeometry x="160" y="50" width="530" height="300" as="geometry" />
        </mxCell>
        <mxCell id="sAePxxTuM_fehcJtn6L--8" value="Персональный компьютер клиента или сотрудника" style="swimlane;whiteSpace=wrap;html=1;" vertex="1" parent="1">
          <mxGeometry x="240" y="410" width="530" height="200" as="geometry" />
        </mxCell>
      </root>
    </mxGraphModel>
  </diagram>
</mxfile>
